<?xml version="1.0" encoding="UTF-8"?>
<svg version="1.1" xmlns="http://www.w3.org/2000/svg" width="500" height="500">
<path d="M0 0 C19.14 0 38.28 0 58 0 C58.061875 7.734375 58.12375 15.46875 58.1875 23.4375 C58.22846802 27.0735022 58.22846802 27.0735022 58.27026367 30.78295898 C58.27903496 32.72899886 58.28667737 34.67504428 58.29296875 36.62109375 C58.30831665 37.6114563 58.32366455 38.60181885 58.33947754 39.62219238 C58.34344686 50.27982179 55.7852089 57.08831642 48.41796875 64.828125 C42.22875032 70.38742297 35.31538698 72.42383162 27.12109375 72.34765625 C20.39262625 71.59817739 14.30320041 68.86216203 9.0625 64.625 C8.381875 63.75875 7.70125 62.8925 7 62 C6.56171875 61.46375 6.1234375 60.9275 5.671875 60.375 C-0.05037801 53.00842141 -0.28782021 45.86285882 -0.1953125 36.81640625 C-0.19329834 35.87986206 -0.19128418 34.94331787 -0.18920898 33.97839355 C-0.17880742 30.50637865 -0.15088517 27.03443399 -0.125 23.5625 C-0.08375 15.786875 -0.0425 8.01125 0 0 Z M9 12 C9 13.32 9 14.64 9 16 C9.99 16 10.98 16 12 16 C12 15.01 12 14.02 12 13 C23.55 13 35.1 13 47 13 C47.495 13.99 47.495 13.99 48 15 C48.33 14.01 48.66 13.02 49 12 C45.30067117 9.64821709 42.06532072 9.74189672 37.75 9.734375 C37.05487305 9.73246155 36.35974609 9.7305481 35.64355469 9.72857666 C34.17773068 9.72721911 32.71189448 9.73088549 31.24609375 9.73925781 C29.00753674 9.74996395 26.76978217 9.73934849 24.53125 9.7265625 C23.1041649 9.72788417 21.6770803 9.73044672 20.25 9.734375 C18.95578125 9.73663086 17.6615625 9.73888672 16.328125 9.74121094 C13.25548545 9.98013391 11.56385117 10.37007694 9 12 Z M18 17 C18.23614245 22.66058512 18.48460911 28.32044179 18.74462891 33.97998047 C18.83137493 35.90626211 18.91472177 37.83269989 18.99462891 39.75927734 C19.10992221 42.52489333 19.23733834 45.28972153 19.3671875 48.0546875 C19.40061249 48.9193161 19.43403748 49.7839447 19.46847534 50.67477417 C19.50469023 55.3168877 19.50469023 55.3168877 22 59 C22 45.14 22 31.28 22 17 C20.68 17 19.36 17 18 17 Z M28 17 C28 29.54 28 42.08 28 55 C28.99 55 29.98 55 31 55 C31 42.46 31 29.92 31 17 C30.01 17 29.02 17 28 17 Z M37 17 C37 27.89 37 38.78 37 50 C37.99 50 38.98 50 40 50 C40 39.11 40 28.22 40 17 C39.01 17 38.02 17 37 17 Z M18 50 C18 53.96 18 57.92 18 62 C18.33 62 18.66 62 19 62 C19 58.04 19 54.08 19 50 C18.67 50 18.34 50 18 50 Z " fill="#485848" transform="translate(111,214)"/>
<path d="M0 0 C1.18851563 0.00902344 2.37703125 0.01804688 3.6015625 0.02734375 C4.51679688 0.03894531 5.43203125 0.05054688 6.375 0.0625 C7.695 2.3725 9.015 4.6825 10.375 7.0625 C11.035 4.7525 11.695 2.4425 12.375 0.0625 C13.695 0.3925 15.015 0.7225 16.375 1.0625 C14.31735079 7.51603615 11.95116518 13.7986263 9.375 20.0625 C8.715 20.0625 8.055 20.0625 7.375 20.0625 C7.045 18.4125 6.715 16.7625 6.375 15.0625 C3.26167752 15.73118314 3.26167752 15.73118314 2.1875 18.125 C1.919375 18.764375 1.65125 19.40375 1.375 20.0625 C0.385 19.7325 -0.605 19.4025 -1.625 19.0625 C-2.80409955 16.41392564 -3.81037785 13.85651465 -4.75 11.125 C-5.27280309 9.65732595 -5.7962133 8.18986797 -6.3203125 6.72265625 C-6.75085938 5.51480469 -7.18140625 4.30695313 -7.625 3.0625 C-7.955 2.4025 -8.285 1.7425 -8.625 1.0625 C-5.74084117 -0.37957941 -3.20778472 -0.03144887 0 0 Z M-1.625 2.0625 C-1.295 4.0425 -0.965 6.0225 -0.625 8.0625 C0.365 7.4025 1.355 6.7425 2.375 6.0625 C2.045 4.7425 1.715 3.4225 1.375 2.0625 C0.385 2.0625 -0.605 2.0625 -1.625 2.0625 Z M0.375 9.0625 C1.375 11.0625 1.375 11.0625 1.375 11.0625 Z M9.375 9.0625 C10.375 11.0625 10.375 11.0625 10.375 11.0625 Z " fill="#374637" transform="translate(221.625,252.9375)"/>
<path d="M0 0 C0.87527344 0.06703125 1.75054687 0.1340625 2.65234375 0.203125 C5.41948826 0.8310022 6.44335797 1.4346269 8.0625 3.75 C7.72916667 10.08333333 7.72916667 10.08333333 5.0625 12.75 C5.7225 13.69875 6.3825 14.6475 7.0625 15.625 C9.0625 18.75 9.0625 18.75 9.0625 20.75 C5.19117972 20.17647107 2.98077204 18.26295648 0.0625 15.75 C0.0625 16.74 0.0625 17.73 0.0625 18.75 C-1.9175 19.08 -3.8975 19.41 -5.9375 19.75 C-7.59247356 16.44005287 -7.03834335 12.75877 -7 9.125 C-6.99548828 8.32320313 -6.99097656 7.52140625 -6.98632812 6.6953125 C-6.97453168 4.71350994 -6.95659605 2.73174567 -6.9375 0.75 C-4.38134834 -0.52807583 -2.83395757 -0.24968789 0 0 Z M1.0625 3.75 C0.7325 5.4 0.4025 7.05 0.0625 8.75 C1.0525 8.42 2.0425 8.09 3.0625 7.75 C3.0625 6.43 3.0625 5.11 3.0625 3.75 C2.4025 3.75 1.7425 3.75 1.0625 3.75 Z " fill="#394D39" transform="translate(309.9375,253.25)"/>
<path d="M0 0 C0.33 0.66 0.66 1.32 1 2 C0.34 2 -0.32 2 -1 2 C-1 2.66 -1 3.32 -1 4 C-1.99 4.33 -2.98 4.66 -4 5 C-4.33 15.89 -4.66 26.78 -5 38 C-5.33 38 -5.66 38 -6 38 C-6 26.45 -6 14.9 -6 3 C-7.65 3 -9.3 3 -11 3 C-10.67 3.33 -10.34 3.66 -10 4 C-9.81490947 6.85908631 -9.6914646 9.69595272 -9.61328125 12.55859375 C-9.58775681 13.41808121 -9.56223236 14.27756866 -9.53593445 15.1631012 C-9.48383331 16.98471938 -9.43441774 18.80641603 -9.38745117 20.62817383 C-9.31290075 23.42247897 -9.22226947 26.21596775 -9.13085938 29.00976562 C-9.08234347 30.77601475 -9.03478549 32.54229051 -8.98828125 34.30859375 C-8.95922195 35.14821152 -8.93016266 35.98782928 -8.90022278 36.85289001 C-8.85556869 38.90171002 -8.9183776 40.95231956 -9 43 C-9.66 43.66 -10.32 44.32 -11 45 C-13.46728516 44.03344727 -13.46728516 44.03344727 -16 42 C-16.46645471 38.96453134 -16.60829721 36.49489347 -16.5234375 33.46484375 C-16.51873444 32.63038223 -16.51403137 31.79592072 -16.50918579 30.93617249 C-16.48782423 28.26911108 -16.43119817 25.60403094 -16.375 22.9375 C-16.35849561 21.13738847 -16.34414683 19.33725579 -16.33203125 17.53710938 C-16.19626735 4.3925347 -16.19626735 4.3925347 -15 2 C-16.98 2.33 -18.96 2.66 -21 3 C-21 3.66 -21 4.32 -21 5 C-21.99 5 -22.98 5 -24 5 C-24.33 5.66 -24.66 6.32 -25 7 C-25.103125 6.360625 -25.20625 5.72125 -25.3125 5.0625 C-25.6528125 4.0415625 -25.6528125 4.0415625 -26 3 C-26.99 2.67 -27.98 2.34 -29 2 C-29.33 2.66 -29.66 3.32 -30 4 C-30 3.01 -30 2.02 -30 1 C-15.15 0.505 -15.15 0.505 0 0 Z M-14 5 C-14 17.54 -14 30.08 -14 43 C-13.01 43 -12.02 43 -11 43 C-11 30.46 -11 17.92 -11 5 C-11.99 5 -12.98 5 -14 5 Z " fill="#414D42" transform="translate(153,226)"/>
<path d="M0 0 C4.29 0 8.58 0 13 0 C13.33 1.65 13.66 3.3 14 5 C11.525 4.01 11.525 4.01 9 3 C9 3.66 9 4.32 9 5 C8.01 5 7.02 5 6 5 C6 5.66 6 6.32 6 7 C7.98 6.67 9.96 6.34 12 6 C12 7.32 12 8.64 12 10 C10.02 10 8.04 10 6 10 C6 11.98 6 13.96 6 16 C10.60742865 14.78955868 10.60742865 14.78955868 15 13 C14.625 15.4375 14.625 15.4375 14 18 C11.52224905 19.23887548 9.76346293 19.16741669 7 19.1875 C5.6696875 19.20876953 5.6696875 19.20876953 4.3125 19.23046875 C2 19 2 19 0 17 C-0.14517744 14.0906442 -0.18630796 11.280054 -0.125 8.375 C-0.11597656 7.57320313 -0.10695313 6.77140625 -0.09765625 5.9453125 C-0.07406223 3.96341477 -0.03819065 1.98167019 0 0 Z " fill="#414D40" transform="translate(264,254)"/>
<path d="M0 0 C0.33 1.65 0.66 3.3 1 5 C1.99 5.33 2.98 5.66 4 6 C4.13277344 6.68707031 4.26554687 7.37414062 4.40234375 8.08203125 C4.57894531 8.98308594 4.75554687 9.88414062 4.9375 10.8125 C5.11152344 11.70582031 5.28554688 12.59914063 5.46484375 13.51953125 C5.97741153 16.11397171 5.97741153 16.11397171 7 19 C5.35 19.33 3.7 19.66 2 20 C1.34 18.68 0.68 17.36 0 16 C-0.99 16 -1.98 16 -3 16 C-3.99 15.67 -4.98 15.34 -6 15 C-6.33 16.65 -6.66 18.3 -7 20 C-8.32 19.34 -9.64 18.68 -11 18 C-10.73445313 17.50371094 -10.46890625 17.00742187 -10.1953125 16.49609375 C-8.40442807 13.05158245 -6.98626518 9.95071624 -5.9375 6.1875 C-4.90120653 2.6641022 -3.99240169 0 0 0 Z " fill="#3B4A3C" transform="translate(333,253)"/>
<path d="M0 0 C0.99 0.33 1.98 0.66 3 1 C4.23555624 3.6299697 5.27422595 6.15135883 6.25 8.875 C6.53101563 9.60847656 6.81203125 10.34195312 7.1015625 11.09765625 C9.12989719 16.61030844 9.12989719 16.61030844 8 20 C6.35 19.67 4.7 19.34 3 19 C3 18.34 3 17.68 3 17 C0.69 16.34 -1.62 15.68 -4 15 C-4.33 16.65 -4.66 18.3 -5 20 C-5.99 19.67 -6.98 19.34 -8 19 C-7.65066406 18.03578125 -7.30132812 17.0715625 -6.94140625 16.078125 C-6.48166914 14.80211997 -6.02203937 13.52607626 -5.5625 12.25 C-5.33240234 11.61578125 -5.10230469 10.9815625 -4.86523438 10.328125 C-3.94574523 7.76954652 -3.05934737 5.26511379 -2.46484375 2.609375 C-2.31144531 2.07828125 -2.15804687 1.5471875 -2 1 C-1.34 0.67 -0.68 0.34 0 0 Z M-1 8 C0 10 0 10 0 10 Z M-2 10 C-2 10.66 -2 11.32 -2 12 C-1.01 11.67 -0.02 11.34 1 11 C0.01 10.67 -0.98 10.34 -2 10 Z " fill="#475748" transform="translate(201,253)"/>
<path d="M0 0 C1 1 1 1 1.0625 3.5625 C1.041875 4.366875 1.02125 5.17125 1 6 C0.34 6 -0.32 6 -1 6 C-1.66 5.01 -2.32 4.02 -3 3 C-5.58380177 2.74969023 -5.58380177 2.74969023 -8 3 C-8.02687279 4.81242052 -8.04633715 6.62495233 -8.0625 8.4375 C-8.07410156 9.44683594 -8.08570313 10.45617187 -8.09765625 11.49609375 C-8.28612676 13.94021067 -8.28612676 13.94021067 -7 15 C-4.58416247 15.33374277 -4.58416247 15.33374277 -2 15 C-0.18523997 13.60414215 -0.18523997 13.60414215 1 12 C1 13.98 1 15.96 1 18 C-6.98524554 19.44395508 -6.98524554 19.44395508 -11 17.6875 C-13.21986924 15.81448533 -13.89467328 14.87887374 -14.23828125 12.01171875 C-14.3686779 7.92824466 -14.35222971 5.60382237 -12.25 2 C-8.14451829 -1.64931708 -5.24667049 -1.16592678 0 0 Z " fill="#435143" transform="translate(257,254)"/>
<path d="M0 0 C4.29 0 8.58 0 13 0 C13.33 1.65 13.66 3.3 14 5 C12.68 5 11.36 5 10 5 C10.01160156 5.92683594 10.02320313 6.85367187 10.03515625 7.80859375 C10.04417969 9.00613281 10.05320312 10.20367187 10.0625 11.4375 C10.07410156 12.63246094 10.08570313 13.82742188 10.09765625 15.05859375 C10 18 10 18 9 19 C7.33382885 19.04063832 5.66611905 19.042721 4 19 C2.49843126 15.99686252 2.90718796 13.20932478 2.9375 9.875 C2.94652344 8.59367187 2.95554687 7.31234375 2.96484375 5.9921875 C2.97644531 5.00476563 2.98804688 4.01734375 3 3 C1.02 3.99 1.02 3.99 -1 5 C-0.67 3.35 -0.34 1.7 0 0 Z " fill="#444F44" transform="translate(284,254)"/>
<path d="M0 0 C18.48 0 36.96 0 56 0 C56.061875 7.734375 56.12375 15.46875 56.1875 23.4375 C56.22846802 27.0735022 56.22846802 27.0735022 56.27026367 30.78295898 C56.27903496 32.72899886 56.28667737 34.67504428 56.29296875 36.62109375 C56.30831665 37.6114563 56.32366455 38.60181885 56.33947754 39.62219238 C56.34238231 47.4214927 55.43522291 55.18987829 49.8125 61.0625 C49.28269531 61.63097656 48.75289062 62.19945312 48.20703125 62.78515625 C47.60955078 63.38650391 47.60955078 63.38650391 47 64 C46.67 63.34 46.34 62.68 46 62 C47.2739589 59.96166576 48.61061923 57.96147874 50 56 C50.66 56 51.32 56 52 56 C52.144375 55.2575 52.28875 54.515 52.4375 53.75 C52.75512667 52.19715848 53.09794493 50.64754588 53.52232361 49.12042236 C54.04395743 46.80487142 54.15969548 44.69583496 54.20532227 42.32324219 C54.22550415 41.3897998 54.24568604 40.45635742 54.26647949 39.49462891 C54.28295532 38.52187012 54.29943115 37.54911133 54.31640625 36.546875 C54.33505737 35.64662598 54.3537085 34.74637695 54.3729248 33.81884766 C54.44111584 30.46266296 54.50133256 27.10632005 54.5625 23.75 C54.706875 16.2425 54.85125 8.735 55 1 C36.85 1 18.7 1 0 1 C0 0.67 0 0.34 0 0 Z " fill="#3D493C" transform="translate(113,214)"/>
<path d="M0 0 C1.98 0 3.96 0 6 0 C5.67 5.28 5.34 10.56 5 16 C9.60608929 14.77273454 9.60608929 14.77273454 14 13 C14.042721 14.66611905 14.04063832 16.33382885 14 18 C13 19 13 19 10.27734375 19.09765625 C9.17519531 19.08605469 8.07304687 19.07445312 6.9375 19.0625 C5.28041016 19.04896484 5.28041016 19.04896484 3.58984375 19.03515625 C2.73519531 19.02355469 1.88054687 19.01195312 1 19 C-0.65497356 15.69005287 -0.10084335 12.00877 -0.0625 8.375 C-0.05798828 7.57320313 -0.05347656 6.77140625 -0.04882812 5.9453125 C-0.03703168 3.96350994 -0.01909605 1.98174567 0 0 Z " fill="#445243" transform="translate(175,254)"/>
<path d="M0 0 C4.29 0 8.58 0 13 0 C14.32 2.31 15.64 4.62 17 7 C17.66 4.69 18.32 2.38 19 0 C20.32 0.33 21.64 0.66 23 1 C21.33333333 6 19.66666667 11 18 16 C14.99174436 14.49587218 14.69337029 12.13951699 13.59765625 9.078125 C12.89895293 6.64864679 12.76428331 4.51431136 13 2 C10.69 2.66 8.38 3.32 6 4 C6 3.34 6 2.68 6 2 C3.03 1.505 3.03 1.505 0 1 C0 0.67 0 0.34 0 0 Z M16 9 C17 11 17 11 17 11 Z " fill="#334034" transform="translate(215,253)"/>
<path d="M0 0 C1.98 0 3.96 0 6 0 C6 5.94 6 11.88 6 18 C4.35 18.33 2.7 18.66 1 19 C-0.25433458 15.23699626 -0.10695422 11.72789091 -0.0625 7.8125 C-0.05798828 7.06291016 -0.05347656 6.31332031 -0.04882812 5.54101562 C-0.03706354 3.69397617 -0.01912865 1.84697787 0 0 Z " fill="#4A5549" transform="translate(345,254)"/>
<path d="M0 0 C0.99 0.33 1.98 0.66 3 1 C2.67 1.66 2.34 2.32 2 3 C1.34 2.67 0.68 2.34 0 2 C0.99 5.63 1.98 9.26 3 13 C0.69 13.66 -1.62 14.32 -4 15 C-4.33 16.65 -4.66 18.3 -5 20 C-5.99 19.67 -6.98 19.34 -8 19 C-7.65066406 18.03578125 -7.30132812 17.0715625 -6.94140625 16.078125 C-6.48166914 14.80211997 -6.02203937 13.52607626 -5.5625 12.25 C-5.33240234 11.61578125 -5.10230469 10.9815625 -4.86523438 10.328125 C-3.94574523 7.76954652 -3.05934737 5.26511379 -2.46484375 2.609375 C-2.31144531 2.07828125 -2.15804687 1.5471875 -2 1 C-1.34 0.67 -0.68 0.34 0 0 Z M-1 8 C0 10 0 10 0 10 Z M-2 10 C-2 10.66 -2 11.32 -2 12 C-1.01 11.67 -0.02 11.34 1 11 C0.01 10.67 -0.98 10.34 -2 10 Z " fill="#304531" transform="translate(201,253)"/>
<path d="M0 0 C2.31 0.33 4.62 0.66 7 1 C7.12375 2.051875 7.2475 3.10375 7.375 4.1875 C7.9158698 7.48680581 8.75999107 9.94131131 10 13 C10 14.32 10 15.64 10 17 C9.34 17 8.68 17 8 17 C8 16.34 8 15.68 8 15 C7.34 15 6.68 15 6 15 C5.65066406 14.08476562 5.30132812 13.16953125 4.94140625 12.2265625 C4.25884766 10.44378906 4.25884766 10.44378906 3.5625 8.625 C3.11003906 7.44164062 2.65757812 6.25828125 2.19140625 5.0390625 C1.10728088 2.13963807 1.10728088 2.13963807 0 0 Z " fill="#435243" transform="translate(213,254)"/>
<path d="M0 0 C2.86724686 0.57344937 3.8614515 0.8614515 6 3 C6.125 5.625 6.125 5.625 6 8 C5.01 8 4.02 8 3 8 C3 8.66 3 9.32 3 10 C1.35 10.33 -0.3 10.66 -2 11 C-1.67 10.484375 -1.34 9.96875 -1 9.4375 C0.32010877 6.21973488 0.13242105 3.4429472 0 0 Z " fill="#435244" transform="translate(312,254)"/>
<path d="M0 0 C0.99 0 1.98 0 3 0 C3.48212214 1.56159059 3.96055873 3.12431928 4.4375 4.6875 C4.83775391 5.99267578 4.83775391 5.99267578 5.24609375 7.32421875 C5.96344529 9.87025921 6.517541 12.4003423 7 15 C6.01 15 5.02 15 4 15 C4 13.35 4 11.7 4 10 C3.01 10 2.02 10 1 10 C0.06576355 6.98968256 -0.04449911 6.13349732 1 3 C0.34 3 -0.32 3 -1 3 C-0.67 2.01 -0.34 1.02 0 0 Z " fill="#485949" transform="translate(225,255)"/>
<path d="M0 0 C0.33 0.99 0.66 1.98 1 3 C5.60742865 1.78955868 5.60742865 1.78955868 10 0 C10.042721 1.66611905 10.04063832 3.33382885 10 5 C9 6 9 6 6.27734375 6.09765625 C4.62412109 6.08025391 4.62412109 6.08025391 2.9375 6.0625 C1.28041016 6.04896484 1.28041016 6.04896484 -0.41015625 6.03515625 C-1.26480469 6.02355469 -2.11945313 6.01195312 -3 6 C-3 5.01 -3 4.02 -3 3 C-2.01 3.33 -1.02 3.66 0 4 C0 2.68 0 1.36 0 0 Z " fill="#29322A" transform="translate(179,267)"/>
<path d="M0 0 C0.33 0 0.66 0 1 0 C1 1.98 1 3.96 1 6 C-7.19256018 7.45295405 -7.19256018 7.45295405 -10.5625 5.5625 C-11.036875 5.046875 -11.51125 4.53125 -12 4 C-11.01 4 -10.02 4 -9 4 C-8.67 3.34 -8.34 2.68 -8 2 C-7.67 2.33 -7.34 2.66 -7 3 C-4.54207971 3.33343551 -4.54207971 3.33343551 -2 3 C-1.34 2.01 -0.68 1.02 0 0 Z " fill="#3E473E" transform="translate(257,266)"/>
<path d="M0 0 C2.36253009 2.36253009 3.037848 4.31227271 4.1875 7.4375 C4.55230469 8.40558594 4.91710937 9.37367188 5.29296875 10.37109375 C6 13 6 13 5 16 C3.35 15.67 1.7 15.34 0 15 C0 14.34 0 13.68 0 13 C-0.66 12.67 -1.32 12.34 -2 12 C-1.01 11.67 -0.02 11.34 1 11 C1.33 11.33 1.66 11.66 2 12 C1.855625 11.13375 1.71125 10.2675 1.5625 9.375 C1.04166667 6.25 0.52083333 3.125 0 0 Z " fill="#354335" transform="translate(204,257)"/>
<path d="M0 0 C1.875 0.1875 1.875 0.1875 4 1 C5.5225431 3.68257593 6.12235992 5.24544717 5.625 8.3125 C5.41875 8.869375 5.2125 9.42625 5 10 C4.34 10 3.68 10 3 10 C3 8.68 3 7.36 3 6 C2.34 6 1.68 6 1 6 C0.67 6.66 0.34 7.32 0 8 C0 5.36 0 2.72 0 0 Z " fill="#495A4C" transform="translate(330,255)"/>
<path d="M0 0 C0.99 0.33 1.98 0.66 3 1 C3.73046875 3.06640625 3.73046875 3.06640625 4.1875 5.5625 C4.34605469 6.38878906 4.50460937 7.21507812 4.66796875 8.06640625 C4.77753906 8.70449219 4.88710938 9.34257812 5 10 C3.35 9.67 1.7 9.34 0 9 C0 6.03 0 3.06 0 0 Z " fill="#475747" transform="translate(305,262)"/>
<path d="M0 0 C1.32 0 2.64 0 4 0 C8 5.11111111 8 5.11111111 8 8 C4.21479387 7.45925627 2.40822445 5.92427254 0 3 C0 2.01 0 1.02 0 0 Z " fill="#3F4940" transform="translate(311,266)"/>
<path d="M0 0 C0.33 0 0.66 0 1 0 C1.33 1.98 1.66 3.96 2 6 C2.99 6.33 3.98 6.66 5 7 C5 8.65 5 10.3 5 12 C3.35 11.67 1.7 11.34 0 11 C-1.35015859 6.94952424 -0.62084998 4.2079832 0 0 Z " fill="#315235" transform="translate(128,266)"/>
<path d="M0 0 C1.4606285 2.64738916 2 3.89448334 2 7 C2.66 6.34 3.32 5.68 4 5 C4.33 6.32 4.66 7.64 5 9 C3.35 9.33 1.7 9.66 0 10 C-1.231394 6.30581799 -0.64432764 3.7943739 0 0 Z " fill="#364035" transform="translate(346,263)"/>
<path d="M0 0 C0.66 0 1.32 0 2 0 C3.25664978 2.90600261 4 4.79604584 4 8 C2.68 8 1.36 8 0 8 C0 5.36 0 2.72 0 0 Z " fill="#4A5749" transform="translate(244,262)"/>
<path d="M0 0 C0.66 0.33 1.32 0.66 2 1 C2 3.64 2 6.28 2 9 C1.01 9 0.02 9 -1 9 C-0.67 6.03 -0.34 3.06 0 0 Z " fill="#4B594A" transform="translate(290,262)"/>
<path d="M0 0 C0.99 0.33 1.98 0.66 3 1 C2.67 1.66 2.34 2.32 2 3 C1.34 2.67 0.68 2.34 0 2 C0.33 3.65 0.66 5.3 1 7 C-0.32 7.33 -1.64 7.66 -3 8 C-3.1875 5.125 -3.1875 5.125 -3 2 C-2.01 1.34 -1.02 0.68 0 0 Z " fill="#3B473D" transform="translate(201,253)"/>
<path d="M0 0 C0.33 1.32 0.66 2.64 1 4 C-2 6 -2 6 -6 6 C-4.75453595 2.26360784 -3.36595047 1.81243487 0 0 Z " fill="#344136" transform="translate(278,267)"/>
<path d="M0 0 C3.36338044 3.36338044 4 6.28835716 4 11 C3.34 11 2.68 11 2 11 C1.01 7.7 0.02 4.4 -1 1 C-0.67 0.67 -0.34 0.34 0 0 Z " fill="#495A48" transform="translate(219,260)"/>
<path d="M0 0 C1.32 0 2.64 0 4 0 C4 2.64 4 5.28 4 8 C2.68 7.34 1.36 6.68 0 6 C0 4.02 0 2.04 0 0 Z " fill="#1E511E" transform="translate(222,258)"/>
<path d="M0 0 C1.2077558 3.62326739 0.54311128 4.64146369 -1 8 C-1.99 7.67 -2.98 7.34 -4 7 C-3.39816251 4.97954558 -2.72693904 2.97888961 -2 1 C-1.34 0.67 -0.68 0.34 0 0 Z " fill="#38403A" transform="translate(197,265)"/>
<path d="M0 0 C2.475 0.99 2.475 0.99 5 2 C5 3.65 5 5.3 5 7 C4.34 7 3.68 7 3 7 C0.70351351 4.4385343 0 3.52032428 0 0 Z " fill="#3A443B" transform="translate(253,253)"/>
<path d="M0 0 C1.98 0 3.96 0 6 0 C6.66 1.32 7.32 2.64 8 4 C6.02 4 4.04 4 2 4 C1.34 2.68 0.68 1.36 0 0 Z " fill="#334F33" transform="translate(305,253)"/>
<path d="M0 0 C4.29 0 8.58 0 13 0 C12.01 0.33 11.02 0.66 10 1 C10 1.66 10 2.32 10 3 C8.68 3.33 7.36 3.66 6 4 C6 3.34 6 2.68 6 2 C3.03 1.505 3.03 1.505 0 1 C0 0.67 0 0.34 0 0 Z " fill="#202B27" transform="translate(215,253)"/>
<path d="M0 0 C0.99 0.495 0.99 0.495 2 1 C2.70603404 4.74198039 3 8.18792739 3 12 C2.34 11.67 1.68 11.34 1 11 C0.5859375 9.00390625 0.5859375 9.00390625 0.375 6.5625 C0.30023438 5.75941406 0.22546875 4.95632813 0.1484375 4.12890625 C0.05264572 2.75505053 0 1.3771912 0 0 Z " fill="#2A482B" transform="translate(335,258)"/>
<path d="M0 0 C2.31 0 4.62 0 7 0 C7.33 1.65 7.66 3.3 8 5 C5.04590299 3.62845496 2.55991624 2.01136276 0 0 Z " fill="#485148" transform="translate(290,254)"/>
<path d="M0 0 C0.66 0.33 1.32 0.66 2 1 C2 2.65 2 4.3 2 6 C1.01 6.33 0.02 6.66 -1 7 C-1.66 6.34 -2.32 5.68 -3 5 C-2.01 3.35 -1.02 1.7 0 0 Z " fill="#323C32" transform="translate(325,266)"/>
<path d="M0 0 C2 3 2 3 2 5 C-0.97 4.67 -3.94 4.34 -7 4 C-7 3.34 -7 2.68 -7 2 C-4.69 1.34 -2.38 0.68 0 0 Z " fill="#343C33" transform="translate(276,254)"/>
<path d="M0 0 C0.33 0 0.66 0 1 0 C1 1.98 1 3.96 1 6 C2.65 6 4.3 6 6 6 C5.67 6.66 5.34 7.32 5 8 C3.35 8 1.7 8 0 8 C-1.43088528 5.13822943 -0.59991697 3.06624227 0 0 Z " fill="#314830" transform="translate(288,265)"/>
<path d="M0 0 C0.33 1.32 0.66 2.64 1 4 C-0.65 4 -2.3 4 -4 4 C-4 3.01 -4 2.02 -4 1 C-2.68 0.67 -1.36 0.34 0 0 Z " fill="#333B34" transform="translate(275,260)"/>
<path d="" fill="#FFFFFF" transform="translate(0,0)"/>
<path d="" fill="#FFFFFF" transform="translate(0,0)"/>
<path d="" fill="#FFFFFF" transform="translate(0,0)"/>
<path d="" fill="#FFFFFF" transform="translate(0,0)"/>
<path d="" fill="#FFFFFF" transform="translate(0,0)"/>
<path d="" fill="#FFFFFF" transform="translate(0,0)"/>
<path d="" fill="#FFFFFF" transform="translate(0,0)"/>
<path d="" fill="#FFFFFF" transform="translate(0,0)"/>
<path d="" fill="#FFFFFF" transform="translate(0,0)"/>
<path d="" fill="#FFFFFF" transform="translate(0,0)"/>
<path d="" fill="#FFFFFF" transform="translate(0,0)"/>
<path d="" fill="#FFFFFF" transform="translate(0,0)"/>
<path d="" fill="#FFFFFF" transform="translate(0,0)"/>
<path d="" fill="#FFFFFF" transform="translate(0,0)"/>
<path d="" fill="#FFFFFF" transform="translate(0,0)"/>
<path d="" fill="#FFFFFF" transform="translate(0,0)"/>
<path d="" fill="#FFFFFF" transform="translate(0,0)"/>
<path d="" fill="#FFFFFF" transform="translate(0,0)"/>
<path d="" fill="#FFFFFF" transform="translate(0,0)"/>
<path d="" fill="#FFFFFF" transform="translate(0,0)"/>
<path d="" fill="#FFFFFF" transform="translate(0,0)"/>
<path d="" fill="#FFFFFF" transform="translate(0,0)"/>
<path d="" fill="#FFFFFF" transform="translate(0,0)"/>
<path d="" fill="#FFFFFF" transform="translate(0,0)"/>
<path d="" fill="#FFFFFF" transform="translate(0,0)"/>
<path d="" fill="#FFFFFF" transform="translate(0,0)"/>
<path d="" fill="#FFFFFF" transform="translate(0,0)"/>
<path d="" fill="#FFFFFF" transform="translate(0,0)"/>
<path d="" fill="#FFFFFF" transform="translate(0,0)"/>
<path d="" fill="#FFFFFF" transform="translate(0,0)"/>
<path d="" fill="#FFFFFF" transform="translate(0,0)"/>
<path d="" fill="#FFFFFF" transform="translate(0,0)"/>
<path d="" fill="#000000" transform="translate(0,0)"/>
<path d="" fill="#000000" transform="translate(0,0)"/>
<path d="" fill="#000000" transform="translate(0,0)"/>
<path d="" fill="#FFFFFF" transform="translate(0,0)"/>
<path d="" fill="#FFFFFF" transform="translate(0,0)"/>
<path d="" fill="#FFFFFF" transform="translate(0,0)"/>
<path d="" fill="#FFFFFF" transform="translate(0,0)"/>
<path d="" fill="#FFFFFF" transform="translate(0,0)"/>
<path d="" fill="#FFFFFF" transform="translate(0,0)"/>
<path d="" fill="#FFFFFF" transform="translate(0,0)"/>
<path d="" fill="#FFFFFF" transform="translate(0,0)"/>
<path d="" fill="#FFFFFF" transform="translate(0,0)"/>
<path d="" fill="#FFFFFF" transform="translate(0,0)"/>
<path d="" fill="#FFFFFF" transform="translate(0,0)"/>
<path d="" fill="#FFFFFF" transform="translate(0,0)"/>
<path d="" fill="#FFFFFF" transform="translate(0,0)"/>
<path d="" fill="#FFFFFF" transform="translate(0,0)"/>
<path d="" fill="#FFFFFF" transform="translate(0,0)"/>
<path d="" fill="#FFFFFF" transform="translate(0,0)"/>
<path d="" fill="#FFFFFF" transform="translate(0,0)"/>
<path d="" fill="#FFFFFF" transform="translate(0,0)"/>
<path d="" fill="#FFFFFF" transform="translate(0,0)"/>
<path d="" fill="#FFFFFF" transform="translate(0,0)"/>
<path d="" fill="#FFFFFF" transform="translate(0,0)"/>
<path d="" fill="#FFFFFF" transform="translate(0,0)"/>
<path d="" fill="#FFFFFF" transform="translate(0,0)"/>
<path d="" fill="#FFFFFF" transform="translate(0,0)"/>
<path d="" fill="#FFFFFF" transform="translate(0,0)"/>
<path d="" fill="#FFFFFF" transform="translate(0,0)"/>
<path d="" fill="#FFFFFF" transform="translate(0,0)"/>
<path d="" fill="#FFFFFF" transform="translate(0,0)"/>
<path d="" fill="#FFFFFF" transform="translate(0,0)"/>
<path d="" fill="#FFFFFF" transform="translate(0,0)"/>
<path d="" fill="#FFFFFF" transform="translate(0,0)"/>
<path d="" fill="#FFFFFF" transform="translate(0,0)"/>
<path d="" fill="#FFFFFF" transform="translate(0,0)"/>
<path d="" fill="#FFFFFF" transform="translate(0,0)"/>
</svg>
